<svg width="503" height="377" xmlns="http://www.w3.org/2000/svg" xmlns:xlink="http://www.w3.org/1999/xlink" xml:space="preserve" overflow="hidden"><g transform="translate(-802 -80)"><g><g><g><g><path d="M369.79 187.658C369.79 248.368 320.575 297.576 259.872 297.576 225.265 297.576 194.396 281.583 174.248 256.596 167.383 248.086 161.769 238.525 157.667 228.198 152.686 215.653 149.946 201.975 149.946 187.658 149.946 126.947 199.161 77.7389 259.864 77.7389 320.568 77.7389 369.783 126.954 369.783 187.658Z" fill="#231F20" fill-rule="nonzero" fill-opacity="1" transform="matrix(1.00183 0 0 1 803 81.0819)"/><path d="M127.713 268.069C127.713 268.069 120.826 279.871 131.645 276.431 142.463 272.991 260.497 206.1 321.975 218.4 321.796 213.322 321.342 205.527 320.069 196.086 317.902 180.041 316.168 167.971 309.027 154.957 305.208 147.995 301.448 141.138 293.228 135.881 281.784 128.562 269.797 129.634 265.91 129.873 225.086 132.33 233.939 174.628 233.939 174.628 233.939 174.628 154.756 217.909 127.706 268.069Z" stroke="#231F20" stroke-width="2.97822" stroke-linecap="butt" stroke-linejoin="miter" stroke-miterlimit="10" stroke-opacity="1" fill="#FFFFFF" fill-rule="nonzero" fill-opacity="1" transform="matrix(1.00183 0 0 1 803 81.0819)"/><path d="M277.22 169.535C277.22 179.725 272.15 187.985 265.895 187.985 259.641 187.985 254.571 179.725 254.571 169.535 254.571 159.345 259.641 151.085 265.895 151.085 272.15 151.085 277.22 159.345 277.22 169.535Z" stroke="#FFFFFF" stroke-width="0.744554" stroke-linecap="butt" stroke-linejoin="miter" stroke-miterlimit="10" stroke-opacity="1" fill="#231F20" fill-rule="nonzero" fill-opacity="1" transform="matrix(1.00183 0 0 1 803 81.0819)"/><path d="M237.826 151.547C237.677 151.509 237.52 151.494 237.364 151.472 232.584 158.813 230.328 177.025 230.909 177.189 234.155 178.068 238.339 173.034 240.245 165.954 242.151 158.873 241.064 152.425 237.818 151.547Z" stroke="#FFFFFF" stroke-width="1.48911" stroke-linecap="butt" stroke-linejoin="miter" stroke-miterlimit="10" stroke-opacity="1" fill="#231F20" fill-rule="nonzero" fill-opacity="1" transform="matrix(1.00183 0 0 1 803 81.0819)"/><path d="M218.207 144.786 329.361 160.854 329.361 156.26 307.062 151.018 319.198 101.833 253.945 91.3419 240.834 141.182 218.207 140.2 218.207 144.786Z" stroke="#FFFFFF" stroke-width="1.48911" stroke-linecap="butt" stroke-linejoin="miter" stroke-miterlimit="10" stroke-opacity="1" fill="#231F20" fill-rule="nonzero" fill-opacity="1" transform="matrix(1.00183 0 0 1 803 81.0819)"/></g></g></g></g></g></svg>